HIERARCHY
ROOT SpineBase
{
  OFFSET 0.000000 0.000000 0.000000
  CHANNELS 6 Xposition Yposition Zposition Zrotation Xrotation Yrotation
  JOINT SpineMid
  {
    OFFSET -0.000000 33.883376 0.000000
    CHANNELS 3 Zrotation Xrotation Yrotation
    JOINT SpineShoulder
    {
      OFFSET -0.178639 25.167891 -0.841317
      CHANNELS 3 Zrotation Xrotation Yrotation
      JOINT Neck
      {
        OFFSET -0.141276 8.319251 -0.633297
        CHANNELS 3 Zrotation Xrotation Yrotation
        JOINT Head
        {
          OFFSET 1.115406 12.824310 5.791934
          CHANNELS 3 Zrotation Xrotation Yrotation
          End Site
          {
            OFFSET 0 0 0
          }
        }
      }
      JOINT ShoulderLeft
      {
        OFFSET -15.115303 -8.104189 -0.217928
        CHANNELS 3 Zrotation Xrotation Yrotation
        JOINT ElbowLeft
        {
          OFFSET -3.295249 -26.270162 7.175085
          CHANNELS 3 Zrotation Xrotation Yrotation
          JOINT WristLeft
          {
            OFFSET -5.039096 -14.863809 14.855988
            CHANNELS 3 Zrotation Xrotation Yrotation
            JOINT HandLeft
            {
              OFFSET -1.609862 -5.063842 5.363331
              CHANNELS 3 Zrotation Xrotation Yrotation
              JOINT HandTipLeft
              {
                OFFSET 6.210005 -1.802957 1.437735
                CHANNELS 3 Zrotation Xrotation Yrotation
                End Site
                {
                  OFFSET 0 0 0
                }
              }
              JOINT ThumbLeft
              {
                OFFSET 5.621348 6.169494 1.318219
                CHANNELS 3 Zrotation Xrotation Yrotation
                End Site
                {
                  OFFSET 0 0 0
                }
              }
            }
          }
        }
      }
      JOINT ShoulderRight
      {
        OFFSET 11.239592 -6.493173 -12.214761
        CHANNELS 3 Zrotation Xrotation Yrotation
        JOINT ElbowRight
        {
          OFFSET 6.951974 -25.403036 0.381724
          CHANNELS 3 Zrotation Xrotation Yrotation
          JOINT WristRight
          {
            OFFSET 2.540998 -20.972599 6.140472
            CHANNELS 3 Zrotation Xrotation Yrotation
            JOINT HandRight
            {
              OFFSET 0.055629 -4.041423 1.620254
              CHANNELS 3 Zrotation Xrotation Yrotation
              JOINT HandTipRight
              {
                OFFSET -1.738642 -6.916058 0.480181
                CHANNELS 3 Zrotation Xrotation Yrotation
                End Site
                {
                  OFFSET 0 0 0
                }
              }
              JOINT ThumbRight
              {
                OFFSET 2.136816 -1.974675 -2.545980
                CHANNELS 3 Zrotation Xrotation Yrotation
                End Site
                {
                  OFFSET 0 0 0
                }
              }
            }
          }
        }
      }
    }
  }
  JOINT HipLeft
  {
    OFFSET -7.132747 0.923501 -1.116269
    CHANNELS 3 Zrotation Xrotation Yrotation
    JOINT KneeLeft
    {
      OFFSET -0.255169 -26.305882 -0.481088
      CHANNELS 3 Zrotation Xrotation Yrotation
      JOINT AnkleLeft
      {
        OFFSET -2.426392 -29.808334 -0.985424
        CHANNELS 3 Zrotation Xrotation Yrotation
        JOINT FootLeft
        {
          OFFSET -4.557962 -2.727013 -11.997285
          CHANNELS 3 Zrotation Xrotation Yrotation
          End Site
          {
            OFFSET 0 0 0
          }
        }
      }
    }
  }
  JOINT HipRight
  {
    OFFSET 5.402497 1.759099 -6.057186
    CHANNELS 3 Zrotation Xrotation Yrotation
    JOINT KneeRight
    {
      OFFSET -0.337679 -28.195075 -3.689841
      CHANNELS 3 Zrotation Xrotation Yrotation
      JOINT AnkleRight
      {
        OFFSET 0.939246 -31.465499 -3.159014
        CHANNELS 3 Zrotation Xrotation Yrotation
        JOINT FootRight
        {
          OFFSET -4.769181 -2.666436 -11.909570
          CHANNELS 3 Zrotation Xrotation Yrotation
          End Site
          {
            OFFSET 0 0 0
          }
        }
      }
    }
  }
}
MOTION
Frames: 14
Frame Time: 0.033333
62.651277 65.784959 261.098005 0.532957 0.520366 22.105708 0.133583 -0.109834 -22.080345 0.050826 -0.024412 0.038272 -6.012859 -2.003358 2.338836 0.000000 0.000000 0.000000 -1.812159 -3.574170 -0.001570 -0.356248 2.955609 -1.406655 0.100265 -0.009134 0.020390 1.313454 0.218670 1.326628 0.000000 0.000000 0.000000 0.000000 0.000000 0.000000 -1.409236 0.547700 0.194733 2.223139 0.544770 0.395676 -5.316038 -1.102655 -2.250629 -0.867169 -2.276696 1.550855 0.000000 0.000000 0.000000 0.000000 0.000000 0.000000 -1.653682 -1.028481 -22.099417 2.680066 -0.771402 0.048149 -2.296789 1.925262 0.801988 0.000000 0.000000 0.000000 -0.689609 -0.281531 -22.109822 0.832920 -0.075883 -0.085324 -0.077930 -5.706141 9.313332 0.000000 0.000000 0.000000
62.639438 65.783571 261.103881 0.567471 0.530861 22.152872 0.137387 -0.113011 -22.126274 0.052333 -0.025487 0.040162 -6.077505 -1.970630 2.342854 0.000000 0.000000 0.000000 -1.952320 -3.444411 -0.051259 -0.260009 2.778182 -1.354763 0.100141 -0.008489 0.019178 1.313505 0.257350 1.314344 0.000000 0.000000 0.000000 0.000000 0.000000 0.000000 -1.455449 0.404327 0.153185 2.243225 0.661582 0.430568 -5.959812 -0.059884 -2.476996 -2.809481 -2.407923 1.301016 0.000000 0.000000 0.000000 0.000000 0.000000 0.000000 -1.709702 -0.952477 -22.146148 2.806505 -0.905336 0.054668 -2.418892 1.985090 1.005384 0.000000 0.000000 0.000000 -0.725764 -0.277666 -22.157260 0.924725 -0.199172 -0.097172 -0.193999 -4.784689 7.293794 0.000000 0.000000 0.000000
62.629791 65.786366 261.109289 0.590928 0.544216 22.225433 0.140636 -0.112214 -22.197990 0.051193 -0.024108 0.041371 -6.073386 -1.961613 2.324988 0.000000 0.000000 0.000000 -1.935426 -3.295498 -0.060249 -0.299719 2.578537 -1.333033 0.100104 -0.007438 0.018264 1.310234 0.289745 1.300513 0.000000 0.000000 0.000000 0.000000 0.000000 0.000000 -1.594238 0.211826 0.099431 2.474062 0.844861 0.510102 -6.829733 0.765330 -2.790283 -3.728784 -1.513495 1.055386 0.000000 0.000000 0.000000 0.000000 0.000000 0.000000 -1.741646 -0.987570 -22.219195 2.682966 -0.668889 0.036884 -2.341968 1.736998 1.248939 0.000000 0.000000 0.000000 -0.752881 -0.280234 -22.230081 0.971296 -0.014348 -0.097800 -0.402732 -3.236021 3.931284 0.000000 0.000000 0.000000
62.624372 65.790802 261.110808 0.610824 0.545088 22.268809 0.142115 -0.107350 -22.240796 0.051761 -0.021074 0.042344 -6.040363 -1.880242 2.294951 0.000000 0.000000 0.000000 -1.571982 -3.231787 0.045620 -0.672232 2.475990 -1.403229 0.099901 -0.006302 0.017463 1.303188 0.318543 1.283798 0.000000 0.000000 0.000000 0.000000 0.000000 0.000000 -1.734004 0.187302 0.091022 2.740584 0.812609 0.553987 -7.258087 1.270858 -2.918322 -3.079239 1.181390 0.628592 0.000000 0.000000 0.000000 0.000000 0.000000 0.000000 -1.757900 -1.032968 -22.262922 2.677174 -0.516931 0.024101 -2.380743 1.628140 1.356133 0.000000 0.000000 0.000000 -0.771835 -0.272929 -22.273553 1.040192 0.049679 -0.103370 -0.406568 -4.653223 6.841850 0.000000 0.000000 0.000000
62.625161 65.795943 261.119261 0.628588 0.560839 22.342164 0.142233 -0.095192 -22.313753 0.052024 -0.015505 0.043273 -5.948900 -1.885989 2.243461 0.000000 0.000000 0.000000 -1.457496 -3.278878 0.083966 -0.789924 2.465662 -1.419537 0.100084 -0.003831 0.016925 1.293620 0.340654 1.266525 0.000000 0.000000 0.000000 0.000000 0.000000 0.000000 -1.831684 0.159217 0.088412 2.942210 0.750581 0.582923 -7.567149 1.552190 -3.008007 -2.599332 2.906198 0.376604 0.000000 0.000000 0.000000 0.000000 0.000000 0.000000 -1.744359 -1.063252 -22.337163 2.448419 0.027977 -0.020535 -2.210795 1.051251 1.509613 0.000000 0.000000 0.000000 -0.794602 -0.279754 -22.347181 1.115298 -0.004446 -0.112032 -0.729681 -3.688352 5.902439 0.000000 0.000000 0.000000
62.627827 65.800060 261.131091 0.642426 0.587244 22.437183 0.141476 -0.074150 -22.408626 0.050839 -0.006824 0.043956 -5.825372 -1.987233 2.184523 0.000000 0.000000 0.000000 -1.848572 -3.436625 -0.024180 -0.396037 2.549883 -1.318643 0.099069 -0.004432 0.016322 1.283037 0.358562 1.249509 0.000000 0.000000 0.000000 0.000000 0.000000 0.000000 -1.830637 0.126210 0.091990 3.023450 0.684637 0.598475 -7.649697 1.642680 -3.020267 -4.575705 4.157932 0.022800 0.000000 0.000000 0.000000 0.000000 0.000000 0.000000 -1.754058 -1.099480 -22.433131 2.297569 0.235983 -0.033840 -2.115677 0.821479 1.724721 0.000000 0.000000 0.000000 -1.552661 -0.642200 -22.369755 1.614193 0.924820 -0.193003 -1.442836 -1.668476 4.374834 0.000000 0.000000 0.000000
62.637328 65.804387 261.146705 0.658580 0.621721 22.551918 0.144789 -0.054366 -22.522977 0.051695 0.000800 0.045160 -5.697211 -2.098288 2.118867 0.000000 0.000000 0.000000 -2.360951 -3.676374 -0.160901 0.108542 2.715082 -1.201490 0.098010 -0.005291 0.015827 1.272938 0.372070 1.234416 0.000000 0.000000 0.000000 0.000000 0.000000 0.000000 -1.883402 0.145423 0.110561 3.156557 0.558008 0.603449 -7.308724 1.305646 -2.880837 -1.945464 6.505953 -0.314145 0.000000 0.000000 0.000000 0.000000 0.000000 0.000000 -1.703382 -1.108913 -22.549375 2.188729 0.084688 -0.017816 -2.123442 0.900842 1.972133 0.000000 0.000000 0.000000 -0.846673 -0.321558 -22.557867 1.051307 0.158514 -0.102231 -1.255569 -0.982117 2.556778 0.000000 0.000000 0.000000
62.651343 65.804881 261.158992 0.674064 0.653868 22.658237 0.148928 -0.035810 -22.628910 0.052589 0.007098 0.046342 -5.567465 -2.137327 2.049505 0.000000 0.000000 0.000000 -2.862076 -4.057299 -0.280358 0.589372 3.003401 -1.108966 0.098031 -0.005495 0.015070 1.272778 0.409662 1.222219 0.000000 0.000000 0.000000 0.000000 0.000000 0.000000 -2.076774 0.115959 0.111358 3.463179 0.448670 0.630068 -6.693847 1.246324 -2.606799 -0.111683 5.610605 -0.321266 0.000000 0.000000 0.000000 0.000000 0.000000 0.000000 -1.611356 -1.117195 -22.657432 1.963861 -0.025739 -0.002411 -2.028648 0.946153 2.080220 0.000000 0.000000 0.000000 -0.873944 -0.343683 -22.664705 1.070226 0.144759 -0.104438 -1.069964 -0.146684 0.101717 0.000000 0.000000 0.000000
62.668851 65.804705 261.177581 0.678469 0.702596 22.719330 0.147581 -0.017368 -22.690096 0.049943 0.012344 0.046682 -5.388358 -2.231379 1.970259 0.000000 0.000000 0.000000 -2.887506 -4.587094 -0.244442 0.620052 3.414578 -1.141290 0.098873 -0.003319 0.014206 1.272565 0.454916 1.207503 0.000000 0.000000 0.000000 0.000000 0.000000 0.000000 -2.264356 0.022206 0.097917 3.765729 0.465030 0.670819 -6.338769 0.808373 -2.466852 3.361337 6.460819 -0.462563 0.000000 0.000000 0.000000 0.000000 0.000000 0.000000 -1.450872 -1.121677 -22.720998 1.687677 -0.279507 0.024726 -1.911318 1.116473 2.043349 0.000000 0.000000 0.000000 -0.897196 -0.385991 -22.726512 1.172156 0.173748 -0.114223 -0.799402 -2.134338 2.142659 0.000000 0.000000 0.000000
62.685483 65.804108 261.202778 0.675708 0.752475 22.797756 0.140032 -0.011521 -22.768851 0.045825 0.011871 0.046367 -5.227244 -2.224283 1.901256 0.000000 0.000000 0.000000 -3.253782 -5.274438 -0.300869 1.039640 4.164827 -1.127415 0.095487 -0.007110 0.016708 1.235640 0.344859 1.203332 0.000000 0.000000 0.000000 0.000000 0.000000 0.000000 -2.411955 -0.152330 0.057736 3.984447 0.629512 0.721464 -5.964593 0.340712 -2.330605 5.112409 6.698041 -0.554742 0.000000 0.000000 0.000000 0.000000 0.000000 0.000000 -0.914511 -0.431810 -22.805640 1.346570 -1.398249 0.085854 -1.815532 1.359170 2.085430 0.000000 0.000000 0.000000 -0.914511 -0.431810 -22.805640 1.079635 0.242539 -0.103389 -0.542302 -2.616869 2.188738 0.000000 0.000000 0.000000
62.701472 65.803472 261.231568 0.657745 0.811767 22.913320 0.124487 -0.003993 -22.885451 0.036919 0.011625 0.044741 -5.012338 -2.190725 1.821052 0.000000 0.000000 0.000000 -3.043620 -5.037845 -0.278982 0.879547 3.847769 -1.119867 0.096319 -0.004021 0.016478 1.230876 0.360691 1.193190 0.000000 0.000000 0.000000 0.000000 0.000000 0.000000 -2.280418 -0.122076 0.086517 3.861992 0.635018 0.699399 -5.527859 -0.129849 -2.184674 5.783211 4.016081 0.117147 0.000000 0.000000 0.000000 0.000000 0.000000 0.000000 -0.921927 -0.491567 -22.921934 1.189883 -1.681189 0.115133 -1.736128 1.611685 2.457068 0.000000 0.000000 0.000000 -0.921927 -0.491567 -22.921934 1.166720 -0.377920 -0.124575 -0.659542 -2.128327 2.641612 0.000000 0.000000 0.000000
62.716591 65.803902 261.255737 0.629469 0.891441 23.040963 0.113346 0.014930 -23.014349 0.026323 0.016399 0.042888 -4.846882 -2.242328 1.767458 0.000000 0.000000 0.000000 -3.145384 -4.686807 -0.378220 1.063210 3.519316 -1.040032 0.094184 -0.006673 0.019296 1.205780 0.244964 1.203392 0.000000 0.000000 0.000000 0.000000 0.000000 0.000000 -2.177357 -0.109537 0.119327 3.793058 0.590055 0.674329 -5.248036 0.054205 -2.076341 4.817375 3.443286 0.072731 0.000000 0.000000 0.000000 0.000000 0.000000 0.000000 -0.928194 -0.573891 -23.050509 1.135632 -2.021128 0.147230 -1.793155 1.900324 3.017441 0.000000 0.000000 0.000000 -0.928194 -0.573891 -23.050509 1.144109 -0.646942 -0.127754 -0.800862 -1.769030 3.258106 0.000000 0.000000 0.000000
62.731364 65.806987 261.266594 0.581061 1.003796 23.373443 0.098047 0.030918 -23.348588 0.013773 0.017948 0.040125 -4.725998 -2.236213 1.738582 0.000000 0.000000 0.000000 -2.673127 -3.887750 -0.353654 0.856557 2.804899 -0.924021 0.080714 -0.010295 0.021287 1.045099 0.033177 1.099581 0.000000 0.000000 0.000000 0.000000 0.000000 0.000000 -1.960109 -0.108246 0.159565 3.590398 0.563913 0.634037 -4.886853 -0.312703 -1.958992 4.045273 3.683454 -0.085734 0.000000 0.000000 0.000000 0.000000 0.000000 0.000000 -0.931665 -0.690829 -23.384150 1.141856 -2.336685 0.176032 -1.942945 2.144422 3.760852 0.000000 0.000000 0.000000 -0.931665 -0.690829 -23.384150 1.009342 -0.830087 -0.118858 -0.971746 -1.258583 4.029199 0.000000 0.000000 0.000000
62.747892 65.810877 261.299216 0.524142 1.120646 23.757060 0.079193 0.032480 -23.734004 0.010028 0.020038 0.037740 -4.699123 -2.140816 1.744580 0.000000 0.000000 0.000000 -2.051900 -3.332506 -0.257721 0.359954 2.376217 -1.022949 0.076568 -0.017346 0.026536 1.430824 -0.481874 0.492877 0.000000 0.000000 0.000000 0.000000 0.000000 0.000000 -1.574396 -0.070475 0.212444 3.100307 0.558781 0.553233 -4.633668 -0.587521 -1.903631 2.278671 2.984930 0.003498 0.000000 0.000000 0.000000 0.000000 0.000000 0.000000 -0.931271 -0.814451 -23.768806 1.190338 -2.625237 0.201978 -2.124486 2.370878 4.447373 0.000000 0.000000 0.000000 -0.931271 -0.814451 -23.768806 0.679526 -0.794389 -0.087270 -1.039666 -0.728249 4.675183 0.000000 0.000000 0.000000
